<mxfile host="app.diagrams.net" modified="2024-01-03T06:47:10.363Z" agent="Mozilla/5.0 (Macintosh; Intel Mac OS X 10_15_7) AppleWebKit/537.36 (KHTML, like Gecko) Chrome/120.0.0.0 Safari/537.36" etag="bQSPh6txwMpN8OtaFgFC" version="22.1.16" type="github">
  <diagram name="第 1 页" id="FD0aNxxlt659Gpjsf320">
    <mxGraphModel dx="1363" dy="866" grid="1" gridSize="10" guides="1" tooltips="1" connect="1" arrows="1" fold="1" page="1" pageScale="1" pageWidth="827" pageHeight="1169" math="0" shadow="0">
      <root>
        <mxCell id="0" />
        <mxCell id="1" parent="0" />
        <mxCell id="Sc_ipUEd_qUevha1-rkS-80" value="" style="verticalLabelPosition=bottom;verticalAlign=top;html=1;shape=mxgraph.basic.cone;rotation=353;strokeColor=none;gradientColor=#666666;gradientDirection=north;" vertex="1" parent="1">
          <mxGeometry x="827.98" y="307.27" width="45" height="202.85" as="geometry" />
        </mxCell>
        <mxCell id="Sc_ipUEd_qUevha1-rkS-21" value="" style="endArrow=classic;html=1;rounded=0;shadow=0;fontFamily=Times New Roman;fontSize=11;startSize=0;endSize=4;sourcePerimeterSpacing=0;strokeWidth=1;curved=1;" edge="1" parent="1">
          <mxGeometry width="50" height="50" relative="1" as="geometry">
            <mxPoint x="895" y="510.12" as="sourcePoint" />
            <mxPoint x="950" y="460" as="targetPoint" />
            <Array as="points">
              <mxPoint x="940" y="500" />
            </Array>
          </mxGeometry>
        </mxCell>
        <mxCell id="Sc_ipUEd_qUevha1-rkS-40" value="&lt;span style=&quot;color: rgb(51, 51, 51); text-align: left; background-color: rgb(255, 255, 255);&quot;&gt;&lt;i style=&quot;&quot;&gt;&lt;font style=&quot;font-size: 18px;&quot;&gt;θ&lt;/font&gt;&lt;/i&gt;&lt;/span&gt;" style="text;html=1;align=center;verticalAlign=middle;resizable=0;points=[];autosize=1;strokeColor=none;fillColor=none;fontSize=6;fontFamily=Times New Roman;" vertex="1" parent="1">
          <mxGeometry x="787" y="424" width="30" height="40" as="geometry" />
        </mxCell>
        <mxCell id="Sc_ipUEd_qUevha1-rkS-41" value="&lt;i style=&quot;font-size: 18px;&quot;&gt;ϑ&lt;/i&gt;" style="text;html=1;strokeColor=none;fillColor=none;align=center;verticalAlign=middle;whiteSpace=wrap;rounded=0;fontFamily=Times New Roman;fontSize=18;" vertex="1" parent="1">
          <mxGeometry x="770" y="285" width="60" height="21" as="geometry" />
        </mxCell>
        <mxCell id="Sc_ipUEd_qUevha1-rkS-42" value="&lt;span style=&quot;color: rgb(51, 51, 51); font-size: 18px; text-align: left;&quot;&gt;&lt;i style=&quot;font-size: 18px;&quot;&gt;φ&lt;/i&gt;&lt;/span&gt;" style="text;html=1;resizable=0;autosize=1;align=center;verticalAlign=middle;points=[];fillColor=none;strokeColor=none;rounded=0;fontFamily=Times New Roman;fontSize=18;labelBackgroundColor=none;" vertex="1" parent="1">
          <mxGeometry x="825" y="445" width="30" height="40" as="geometry" />
        </mxCell>
        <mxCell id="Sc_ipUEd_qUevha1-rkS-43" value="" style="endArrow=classic;html=1;rounded=0;" edge="1" parent="1">
          <mxGeometry width="50" height="50" relative="1" as="geometry">
            <mxPoint x="780" y="435" as="sourcePoint" />
            <mxPoint x="1080" y="435" as="targetPoint" />
          </mxGeometry>
        </mxCell>
        <mxCell id="Sc_ipUEd_qUevha1-rkS-44" value="" style="endArrow=classic;html=1;rounded=0;" edge="1" parent="1">
          <mxGeometry width="50" height="50" relative="1" as="geometry">
            <mxPoint x="780" y="435" as="sourcePoint" />
            <mxPoint x="650" y="565" as="targetPoint" />
          </mxGeometry>
        </mxCell>
        <mxCell id="Sc_ipUEd_qUevha1-rkS-45" value="" style="endArrow=classic;html=1;rounded=0;" edge="1" parent="1">
          <mxGeometry width="50" height="50" relative="1" as="geometry">
            <mxPoint x="780" y="435" as="sourcePoint" />
            <mxPoint x="780" y="185" as="targetPoint" />
          </mxGeometry>
        </mxCell>
        <mxCell id="Sc_ipUEd_qUevha1-rkS-46" value="" style="endArrow=classic;dashed=1;html=1;strokeWidth=2;rounded=0;startArrow=none;endFill=1;" edge="1" parent="1" source="Sc_ipUEd_qUevha1-rkS-64">
          <mxGeometry width="50" height="50" relative="1" as="geometry">
            <mxPoint x="730" y="235" as="sourcePoint" />
            <mxPoint x="1040" y="453" as="targetPoint" />
          </mxGeometry>
        </mxCell>
        <mxCell id="Sc_ipUEd_qUevha1-rkS-47" value="" style="endArrow=none;dashed=1;html=1;strokeWidth=2;rounded=0;startArrow=none;" edge="1" parent="1" source="Sc_ipUEd_qUevha1-rkS-56">
          <mxGeometry width="50" height="50" relative="1" as="geometry">
            <mxPoint x="720" y="395" as="sourcePoint" />
            <mxPoint x="980" y="577" as="targetPoint" />
          </mxGeometry>
        </mxCell>
        <mxCell id="Sc_ipUEd_qUevha1-rkS-48" value="O" style="text;strokeColor=none;fillColor=none;align=left;verticalAlign=middle;spacingLeft=4;spacingRight=4;overflow=hidden;points=[[0,0.5],[1,0.5]];portConstraint=eastwest;rotatable=0;fontFamily=Times New Roman;fontStyle=3;fontSize=20;" vertex="1" parent="1">
          <mxGeometry x="740" y="415" width="30" height="30" as="geometry" />
        </mxCell>
        <mxCell id="Sc_ipUEd_qUevha1-rkS-49" value="x" style="text;strokeColor=none;fillColor=none;align=left;verticalAlign=middle;spacingLeft=4;spacingRight=4;overflow=hidden;points=[[0,0.5],[1,0.5]];portConstraint=eastwest;rotatable=0;fontStyle=3;fontFamily=Times New Roman;fontSize=20;" vertex="1" parent="1">
          <mxGeometry x="665" y="555" width="80" height="30" as="geometry" />
        </mxCell>
        <mxCell id="Sc_ipUEd_qUevha1-rkS-50" value="y" style="text;strokeColor=none;fillColor=none;align=left;verticalAlign=middle;spacingLeft=4;spacingRight=4;overflow=hidden;points=[[0,0.5],[1,0.5]];portConstraint=eastwest;rotatable=0;fontFamily=Times New Roman;fontStyle=3;fontSize=20;" vertex="1" parent="1">
          <mxGeometry x="1080" y="405" width="30" height="30" as="geometry" />
        </mxCell>
        <mxCell id="Sc_ipUEd_qUevha1-rkS-51" value="&lt;i style=&quot;font-size: 20px;&quot;&gt;&lt;b style=&quot;font-size: 20px;&quot;&gt;&lt;font style=&quot;font-size: 20px;&quot;&gt;z&lt;/font&gt;&lt;/b&gt;&lt;/i&gt;" style="text;html=1;strokeColor=none;fillColor=none;align=center;verticalAlign=middle;whiteSpace=wrap;rounded=0;fontFamily=Times New Roman;fontSize=20;" vertex="1" parent="1">
          <mxGeometry x="745" y="165" width="30" height="30" as="geometry" />
        </mxCell>
        <mxCell id="Sc_ipUEd_qUevha1-rkS-52" value="H" style="text;strokeColor=none;fillColor=none;align=left;verticalAlign=middle;spacingLeft=4;spacingRight=4;overflow=hidden;points=[[0,0.5],[1,0.5]];portConstraint=eastwest;rotatable=0;fontFamily=Times New Roman;fontStyle=3;fontSize=18;" vertex="1" parent="1">
          <mxGeometry x="745" y="325" width="30" height="30" as="geometry" />
        </mxCell>
        <mxCell id="Sc_ipUEd_qUevha1-rkS-53" value="" style="endArrow=none;html=1;rounded=0;fontFamily=Times New Roman;fontSize=14;strokeWidth=2;" edge="1" parent="1">
          <mxGeometry width="50" height="50" relative="1" as="geometry">
            <mxPoint x="780" y="270" as="sourcePoint" />
            <mxPoint x="840" y="312" as="targetPoint" />
          </mxGeometry>
        </mxCell>
        <mxCell id="Sc_ipUEd_qUevha1-rkS-54" value="" style="endArrow=none;html=1;rounded=0;fontFamily=Times New Roman;fontSize=14;strokeWidth=2;startArrow=none;fillColor=#f0a30a;strokeColor=#BD7000;" edge="1" parent="1" source="Sc_ipUEd_qUevha1-rkS-67">
          <mxGeometry width="50" height="50" relative="1" as="geometry">
            <mxPoint x="840" y="312" as="sourcePoint" />
            <mxPoint x="860" y="493" as="targetPoint" />
          </mxGeometry>
        </mxCell>
        <mxCell id="Sc_ipUEd_qUevha1-rkS-55" value="" style="endArrow=none;html=1;rounded=0;fontFamily=Times New Roman;fontSize=14;strokeWidth=2;fillColor=#f0a30a;strokeColor=#BD7000;" edge="1" parent="1">
          <mxGeometry width="50" height="50" relative="1" as="geometry">
            <mxPoint x="780" y="270" as="sourcePoint" />
            <mxPoint x="860" y="495" as="targetPoint" />
          </mxGeometry>
        </mxCell>
        <mxCell id="Sc_ipUEd_qUevha1-rkS-56" value="" style="shape=waypoint;sketch=0;fillStyle=solid;size=6;pointerEvents=1;points=[];fillColor=none;resizable=0;rotatable=0;perimeter=centerPerimeter;snapToPoint=1;fontFamily=Times New Roman;fontSize=14;" vertex="1" parent="1">
          <mxGeometry x="840" y="475" width="40" height="40" as="geometry" />
        </mxCell>
        <mxCell id="Sc_ipUEd_qUevha1-rkS-57" value="" style="endArrow=none;dashed=1;html=1;strokeWidth=2;rounded=0;startArrow=none;" edge="1" parent="1" source="Sc_ipUEd_qUevha1-rkS-69" target="Sc_ipUEd_qUevha1-rkS-56">
          <mxGeometry width="50" height="50" relative="1" as="geometry">
            <mxPoint x="720" y="395" as="sourcePoint" />
            <mxPoint x="1080" y="645" as="targetPoint" />
          </mxGeometry>
        </mxCell>
        <mxCell id="Sc_ipUEd_qUevha1-rkS-58" value="&lt;i style=&quot;font-size: 18px;&quot;&gt;&lt;b&gt;R&lt;sub&gt;0&lt;/sub&gt;&lt;/b&gt;&lt;/i&gt;" style="text;html=1;resizable=0;autosize=1;align=center;verticalAlign=middle;points=[];fillColor=none;strokeColor=none;rounded=0;fontFamily=Times New Roman;fontSize=11;" vertex="1" parent="1">
          <mxGeometry x="790" y="390" width="40" height="40" as="geometry" />
        </mxCell>
        <mxCell id="Sc_ipUEd_qUevha1-rkS-59" value="&lt;i style=&quot;font-size: 18px;&quot;&gt;&lt;b&gt;R&lt;font style=&quot;font-size: 18px;&quot;&gt;(t)&lt;/font&gt;&lt;/b&gt;&lt;/i&gt;" style="text;html=1;resizable=0;autosize=1;align=center;verticalAlign=middle;points=[];fillColor=none;strokeColor=none;rounded=0;fontFamily=Times New Roman;fontSize=11;" vertex="1" parent="1">
          <mxGeometry x="845" y="360" width="50" height="40" as="geometry" />
        </mxCell>
        <mxCell id="Sc_ipUEd_qUevha1-rkS-60" value="P" style="text;strokeColor=none;fillColor=none;align=left;verticalAlign=middle;spacingLeft=4;spacingRight=4;overflow=hidden;points=[[0,0.5],[1,0.5]];portConstraint=eastwest;rotatable=0;fontFamily=Times New Roman;fontStyle=3;fontSize=18;" vertex="1" parent="1">
          <mxGeometry x="830" y="485" width="30" height="30" as="geometry" />
        </mxCell>
        <mxCell id="Sc_ipUEd_qUevha1-rkS-61" value="" style="endArrow=none;html=1;rounded=0;fontFamily=Times New Roman;fontSize=11;strokeWidth=1;edgeStyle=orthogonalEdgeStyle;curved=1;endSize=4;startSize=10;sourcePerimeterSpacing=0;" edge="1" parent="1">
          <mxGeometry width="50" height="50" relative="1" as="geometry">
            <mxPoint x="800" y="435" as="sourcePoint" />
            <mxPoint x="790" y="445" as="targetPoint" />
            <Array as="points">
              <mxPoint x="800" y="445" />
            </Array>
          </mxGeometry>
        </mxCell>
        <mxCell id="Sc_ipUEd_qUevha1-rkS-62" value="" style="endArrow=none;html=1;rounded=0;shadow=0;fontFamily=Times New Roman;fontSize=11;startSize=0;endSize=4;sourcePerimeterSpacing=0;strokeWidth=1;edgeStyle=orthogonalEdgeStyle;curved=1;" edge="1" parent="1">
          <mxGeometry width="50" height="50" relative="1" as="geometry">
            <mxPoint x="850" y="471" as="sourcePoint" />
            <mxPoint x="840" y="481" as="targetPoint" />
            <Array as="points">
              <mxPoint x="840" y="471" />
            </Array>
          </mxGeometry>
        </mxCell>
        <mxCell id="Sc_ipUEd_qUevha1-rkS-63" value="" style="endArrow=none;html=1;rounded=0;shadow=0;fontFamily=Times New Roman;fontSize=11;startSize=0;endSize=4;sourcePerimeterSpacing=0;strokeWidth=1;curved=1;edgeStyle=orthogonalEdgeStyle;" edge="1" parent="1">
          <mxGeometry width="50" height="50" relative="1" as="geometry">
            <mxPoint x="790" y="295" as="sourcePoint" />
            <mxPoint x="800" y="285" as="targetPoint" />
            <Array as="points">
              <mxPoint x="800" y="295" />
            </Array>
          </mxGeometry>
        </mxCell>
        <mxCell id="Sc_ipUEd_qUevha1-rkS-64" value="" style="shape=image;imageAspect=0;aspect=fixed;verticalLabelPosition=bottom;verticalAlign=top;fontSize=22;image=data:image/webp,UklGRpoMAABXRUJQVlA4II4MAADQbQCdASr0AfQBPpFGoEwlo6MiIbBYwLASCWlu/HA5p3YnZ1vf2/9ePC3+5/73+sdV3649T/law52jfYj9z+NHzV7BeAF+Ofnz8eflueReyaAPBB+c8z/6nWj6AHlP/5vlC+veni9of7S+gAGuZB6wrX5YVUXbMg9YVr8sKqLtmQesK1+WFVF2zIPWFa/LCqi7ZkHrCiAZaT2sOawrX5YVUXbMg9YD1pHZsE//n2d4kIikJuhyjWvywqou2ZB6wrX44lLGw0bS5BOjec7SX0mDCqi7ZkHrCtfMkIddHVLuNIWs6+aVvZkHrCtflhVRdpT1uEf5DGwfc7xHBmdXbMg8s4qWX/ObUupJxTB/5zal06cqjzNw2ve1UobbxEKTrjQesCSIsCZ8M8qUkSfxhh9mFL56f5LOa7Mg9VAYKQ8c3KAbm4SzBhVRdsyDQ7AGJS72Hpr8sKp/iCJ1/nggbGX4BHKoCD1hWvmO4w9rzy2rCtflhWhO90MVZ8WXQD4FA5Sqi7ZhkdJFsyD1hWvywqfFUOTwyIh8pWkXuQlVF0gf+1YVr8sKqLvOMAWRNgOlNvrCsrjr8sKqLtmQesKE16rflDaeMzIPMQTSYMKqLtmQeqSGbciqbAcJa/LBSyVUXbMg9YVr5jXqt+T1Rd6OFBzkvEBocnimP9XsyD1hWvywoiT+vfkMUmLsKIvloVO2pNc5MibeAyD6Fkqou2ZB6wrIQzbkVyPR9JDNuRVJtJIhHVwm+3GYgmkwYVPnSu9JFmqUiP60X8ttRY29bf6woMt6C0p83IrgqkC58zQEHrCtvm2nhVOMkb8izh3pSBWtSukBW33e9HCYPW5WN/Cqi7ZkGonstO5pOY3n3CJ+PRIG1ZNqwJVfCCS+OLGqSTMg9YVr9rXQ4KRdOOTM3+LXI5rASgrv+HFZKqLtmQesCO+LscI370p65iehhVkqou0rlGj3u3X/8dflhVRdsyDRPAHAl36kCtflXVpZFRaslVF2zIPWFa2hgya4aLsyDyovZrx1b5JmQesK1+WFTxEgK0CkhF2zH1fKJgtnd4BaiqEdvgwqou2ZB6wIogKq//CewesK1+WFVF2zIPWFa+aShLr1+d0PWFa/LCqi7ZkHrCtflhVRdsyD1hWvywqou2ZB6wrX5YVUXbMg9YVr8sKqLtmQesK1+WFTwAD+/3joAAC9bpkGJ00RgqLGn2tt0sZU4LpLwfaH3Hpy52DyImn/MiU3rWT0N40KhtThJ7GKU/3I91jggf7CfPzrWVykbvrzjhlWZ6OYQiEJPAyBOL/EVrBMwmWcBoEh/r+vAmuVNoAt8uRfkNBA5myohuS7UZ2ZpsMUzgH5jqF4fl4uzZIqHDdDuA48d0EwZBWS5m3JaLP2URR80diuuhCiYsvXFKP0npItucQD92eNwFbvd8DsC7+bme8rwuKt0T7ZOeEatAVp0BkpD0gWr5W6Q+fj3enTi+xRjujDldVZ/+Povp11utnKdSkS1vKIq2d4VM4yd1vEnR8lQ4LvBYlf3vKCQz1CHvKFFUHgQmhYVBhKFPjkn5UNxE1uRLKy9uv1v46uUN1k5f7ruKyMqnITEd/6iSWd7HzvMIY/3QLqSdDrUgF8G4A0rxkWEJtFztRFZ4i/26XLWXvbuoDJ9shRtqal+sFjacPupEyh3oUCrmvL3J7cfm7JEUPyaTP0x1PDnEXCLM7axu7qP1r1so+smD4zRJwzMfOC0+O1I0I1DE3V0O62OqB6djIgQZfLgMMFsUHxJk+lTnblkNXgVPsezWNhrlJ+zsKeV9UqSeH9GhaaZmR5phli+jRKtl9pc3fUIdtkaIV0WraLJyEvlulFnXdh4i0alkD9PmWzrgysAfRCoAlwt6sMtuwyEgRLyI14sHvDZIbNL/Qw7XbLzczh3phc/mfirRWmaXyOe6fpLR7XTysaM/0wQYwKzT08iQ+q1BRB33XEQjgAX2kfcrtAXK/p65UBDeE911KQwy2hvH7SJgY2uOA/luKT31oo8rDjiCHb+8nS+6DFb83bYuH1VfHaCAomZGo+VdFggmqaRBhPpzE32O97T9BxAVM/MbejyYTnReE52MeJ1UuyYLP0lfodkOSY9BwYINDLY371NDBHyYK09n99IWn7FfiMNwmCNdx2cJgdXcjl/H9F5P6kJhG/H2MYK/wn5jrgaA8PcOCpGXmXKuA+1cC0lcJ/xwFlE4AhxJL7rn3uP4JbsFPVnujl/8XMOphnjRx6HKO04nQELm1DNe6VWPRmB6RXIIYlBgutJwQevooRuDmTqhOe8F3GbbgjH6TmJCUNkc0LXOedQHDW8XvZL4ufaxQccgUEfhGl46X9BvKPaod39OJ7SPrbuAgIiMqnmFnUTg03X6TYBd23ZscVbplrurrLhTaZvXxmbv6mDfq0ND0rJ36KZ0LKL5Uju/MBHcP0qcVa2Lm6OfOIh/lVWhUc35ddi9CuowlJ3dqFe4epRXE69sZpfkGSVCxCCN6WF+U+4DhoYGqM4q7fHGXEdQBFW2atgAzCF9IZpTislDHLWXvbuoWF6aooN8K+wbrl02asX1Rd607wDUeyoNUoQj4FsQcnu4wgKC97JjLRzGO4+oq7oO+tcZBJakZNsiqFEeRAUQy6XUifLUhabxmXHtA546VraD4eDNgmbQkd1JfxKduLf/0tph70qc0ZLJILUcQ89Uo/70DWAaogeQ5pwhDsT1LTz2mOnKlAGYnocdsQFfJgUA8w9N9yCX3FEvPyLIu/4mNIDWEHytvuumTnnVBx1jv1DLG7nLxwbImKTisGtdZ7bkrxTislDHLWXvburAQ0V8DMQeAG3pETudZbNP9cROFXw5cbh7nblyZiTCuvau0XKUOdwBg6T5BP8tU045Ugl+Ys/CFIuSRUyu6fkOTrmpf0Z6O98rgpmBJhwA+paJ0BcVb0aqvQkwzoXpHcgT4WdRSEcWpwjbtjjvKpdbmWm2L8E6vsDRelSo4YtOgK/BRGZJKCJzi0gGsnaTvn5FdJSViFeZuInfpbOgoRRsww3nG1ER7/uj20JI34GJpG2RfT16KEij/Z8C4Wm0lWqPPSLWM/SHWMJ+J7ZCsi8ODJLRHI6PsXV7rcZxy1RHOI7uc94/XbeGbSgC6SXAmHh5T4YG4SXdjbBjoeNlnUJicFArFxE/E7JexsKngg1RIhsVD5qTRzuCJupPUe9IPE2pMXUne0l1vSoTjeBQ/4Hk++gLB3uYwhh48AiLCa0MTUS/gdS4GU3DwoaUMoZrRQV46iL8BKG20eY0EkNAmMufMWsj/Ct2g7kG1r6pI3gZOq3zXUz+9l1e2QF0GTlEDF0EEThNGBjyt+coDzYSKXE7pWUYbpmODk7RNUsrJmeR0NUKUxEx+/x75W+OXW9Zk/rnBwA6O+PLmzTjMJyVvKMFDXt/2lrLgtbRfMBjsfLrS6/VQ7do4An3KKgaXJtdu6oqihS8iMVgH/vYn7Um/mcy4FSj6/xzSjUo5AjCRLUb6VmW39EMYZoTa8cHhT2Zyp9xxz20sFY3A+0eK2yqCYnGjTvoJ/OVJkn4tp0UYyevKw7VZQTNchlsnMH56lt0NW7u6WoTEAfB0MhT/3I94B93kn6gFyMuUSSehLICQbkaduWV/p0ZThIvXCQ+CVw2Szho1i75xnnrBA8Y/kAlRs/Hf2c3gVWNUNUzowGHjgtdnxxUx75Hsj60pgZicZlBAqmTHqyyzZtGZ3+KJYguUUiVwtezCsIQ1T8ai3BRfwM4vydgVetfJEu6bZ8D1KGdw2bQ40j9zylQ59gV6iSre3zquXg0IUtw6i4PkZiXNnUa8a+P7ur866kXsvmdZuOsodWT30CeQqZb1BeOK6ASKdMbB/plNH95hJMFeFgDThW7WmVditHaxucRQSphiFe6JLWbC21C0iNnacFfSNwDEEror1ECNwOTMEN1mFAAN0vsnY/T9Z4G8jRPknRla3cAvMHcw+53SA5oIn29odTXcsCcktet+6U0hSI+r20WAILvChBEWG0ZIwerCNZ8FC6GXni6c6UcFN85/h4V7hz0cvnELzY6KNxLu+k9n4RbLhMb1j2JhyfbreycCWU9qUgDFKwM6HdY9uMd8EW2pHyVfiW9upebKCz6WXCjzjCTTt0UF8BSYBqGCdwZh9+gv/ie16d68RUG+fJVvpJfa0s7990zkAD/QA/0cNirlbXSUSN7+1A47pPicPpqfht2aPruREPRuEvCkXG8MiKy5DBRIGxVYEnnVVmMIY3y3s2h1ImQWUcX5+6ngAAAAAAAAA;direction=south;rotation=350;labelBackgroundColor=default;" vertex="1" parent="1">
          <mxGeometry x="725" y="225" width="50" height="50" as="geometry" />
        </mxCell>
        <mxCell id="Sc_ipUEd_qUevha1-rkS-65" value="" style="endArrow=none;dashed=1;html=1;strokeWidth=2;rounded=0;" edge="1" parent="1" target="Sc_ipUEd_qUevha1-rkS-64">
          <mxGeometry width="50" height="50" relative="1" as="geometry">
            <mxPoint x="730" y="235" as="sourcePoint" />
            <mxPoint x="1040" y="453" as="targetPoint" />
          </mxGeometry>
        </mxCell>
        <mxCell id="Sc_ipUEd_qUevha1-rkS-66" value="" style="shape=waypoint;sketch=0;fillStyle=solid;size=6;pointerEvents=1;points=[];fillColor=#000000;resizable=0;rotatable=0;perimeter=centerPerimeter;snapToPoint=1;fontSize=22;fontColor=#ffffff;strokeColor=#000000;strokeWidth=3;" vertex="1" parent="1">
          <mxGeometry x="760" y="251" width="40" height="40" as="geometry" />
        </mxCell>
        <mxCell id="Sc_ipUEd_qUevha1-rkS-67" value="" style="shape=waypoint;sketch=0;fillStyle=solid;size=6;pointerEvents=1;points=[];fillColor=#000000;resizable=0;rotatable=0;perimeter=centerPerimeter;snapToPoint=1;fontSize=22;fontColor=#ffffff;strokeColor=#000000;strokeWidth=3;" vertex="1" parent="1">
          <mxGeometry x="820" y="291" width="40" height="40" as="geometry" />
        </mxCell>
        <mxCell id="Sc_ipUEd_qUevha1-rkS-68" value="" style="endArrow=none;html=1;rounded=0;fontFamily=Times New Roman;fontSize=14;strokeWidth=2;" edge="1" parent="1" target="Sc_ipUEd_qUevha1-rkS-67">
          <mxGeometry width="50" height="50" relative="1" as="geometry">
            <mxPoint x="840" y="312" as="sourcePoint" />
            <mxPoint x="860" y="493" as="targetPoint" />
          </mxGeometry>
        </mxCell>
        <mxCell id="Sc_ipUEd_qUevha1-rkS-69" value="" style="shape=waypoint;sketch=0;fillStyle=solid;size=6;pointerEvents=1;points=[];fillColor=#000000;resizable=0;rotatable=0;perimeter=centerPerimeter;snapToPoint=1;fontSize=22;strokeColor=#000000;strokeWidth=3;fontColor=#ffffff;" vertex="1" parent="1">
          <mxGeometry x="840" y="475" width="40" height="40" as="geometry" />
        </mxCell>
        <mxCell id="Sc_ipUEd_qUevha1-rkS-70" value="" style="endArrow=none;dashed=1;html=1;strokeWidth=2;rounded=0;" edge="1" parent="1" target="Sc_ipUEd_qUevha1-rkS-69">
          <mxGeometry width="50" height="50" relative="1" as="geometry">
            <mxPoint x="720" y="395" as="sourcePoint" />
            <mxPoint x="860" y="495" as="targetPoint" />
          </mxGeometry>
        </mxCell>
        <mxCell id="Sc_ipUEd_qUevha1-rkS-73" value="&lt;font face=&quot;Times New Roman&quot;&gt;&lt;span style=&quot;font-size: 20px;&quot;&gt;&lt;b&gt;&lt;i&gt;A&lt;/i&gt;&lt;/b&gt;&lt;/span&gt;&lt;/font&gt;" style="text;html=1;strokeColor=none;fillColor=none;align=center;verticalAlign=middle;whiteSpace=wrap;rounded=0;" vertex="1" parent="1">
          <mxGeometry x="770" y="251" width="60" height="30" as="geometry" />
        </mxCell>
        <mxCell id="Sc_ipUEd_qUevha1-rkS-74" value="&lt;font face=&quot;Times New Roman&quot;&gt;&lt;span style=&quot;font-size: 20px;&quot;&gt;&lt;b&gt;&lt;i&gt;B&lt;/i&gt;&lt;/b&gt;&lt;/span&gt;&lt;/font&gt;" style="text;html=1;strokeColor=none;fillColor=none;align=center;verticalAlign=middle;whiteSpace=wrap;rounded=0;" vertex="1" parent="1">
          <mxGeometry x="815" y="280.5" width="60" height="30" as="geometry" />
        </mxCell>
        <mxCell id="Sc_ipUEd_qUevha1-rkS-77" value="" style="endArrow=classic;html=1;rounded=0;fontFamily=Times New Roman;" edge="1" parent="1">
          <mxGeometry width="50" height="50" relative="1" as="geometry">
            <mxPoint x="875" y="310" as="sourcePoint" />
            <mxPoint x="915" y="340" as="targetPoint" />
          </mxGeometry>
        </mxCell>
        <mxCell id="Sc_ipUEd_qUevha1-rkS-78" value="&lt;i&gt;v&lt;/i&gt;" style="text;html=1;strokeColor=none;fillColor=none;align=center;verticalAlign=middle;whiteSpace=wrap;rounded=0;fontFamily=Times New Roman;fontSize=18;" vertex="1" parent="1">
          <mxGeometry x="865" y="300" width="60" height="30" as="geometry" />
        </mxCell>
        <mxCell id="Sc_ipUEd_qUevha1-rkS-79" value="" style="endArrow=none;html=1;rounded=0;fontFamily=Times New Roman;fontSize=14;strokeWidth=2;" edge="1" parent="1">
          <mxGeometry width="50" height="50" relative="1" as="geometry">
            <mxPoint x="845" y="327" as="sourcePoint" />
            <mxPoint x="845" y="326" as="targetPoint" />
          </mxGeometry>
        </mxCell>
        <mxCell id="Sc_ipUEd_qUevha1-rkS-93" value="" style="curved=1;endArrow=classic;html=1;rounded=0;dashed=1;dashPattern=1 2;strokeWidth=2;" edge="1" parent="1">
          <mxGeometry width="50" height="50" relative="1" as="geometry">
            <mxPoint x="755" y="505" as="sourcePoint" />
            <mxPoint x="935" y="440" as="targetPoint" />
            <Array as="points">
              <mxPoint x="765" y="505" />
              <mxPoint x="795" y="505" />
              <mxPoint x="845" y="500" />
              <mxPoint x="905" y="480" />
            </Array>
          </mxGeometry>
        </mxCell>
        <mxCell id="Sc_ipUEd_qUevha1-rkS-94" value="&lt;span style=&quot;color: rgb(51, 51, 51); font-size: 18px; text-align: left; background-color: rgb(255, 255, 255);&quot;&gt;&lt;i style=&quot;font-size: 18px;&quot;&gt;ω&lt;/i&gt;&lt;/span&gt;" style="text;html=1;strokeColor=none;fillColor=none;align=center;verticalAlign=middle;whiteSpace=wrap;rounded=0;fontFamily=Times New Roman;fontSize=18;" vertex="1" parent="1">
          <mxGeometry x="940" y="496.12" width="20" height="14" as="geometry" />
        </mxCell>
      </root>
    </mxGraphModel>
  </diagram>
</mxfile>
